<svg xmlns="http://www.w3.org/2000/svg" xmlns:xlink="http://www.w3.org/1999/xlink" viewBox="0 0 2080.82 587.63"><defs><style>.cls-1{fill:none;}.cls-2{clip-path:url(#clip-path);}.cls-3{fill:#f15a24;}.cls-4{fill:#ed1c24;}.cls-5{fill:#ff931e;}</style><clipPath id="clip-path" transform="translate(439 -226.8)"><rect class="cls-1" width="1440" height="990"/></clipPath></defs><g id="Layer_2" data-name="Layer 2"><g id="Layer_3" data-name="Layer 3"><g class="cls-2"><path class="cls-3" d="M116.79,491c196.47,122.15,783,150.31,1199.55,200.19s306.35,123.28,306.35,123.28,120-83.32-241.09-156.62-584-41-923.66-114.95S-245.7,226.8-245.7,226.8,11.89,425.73,116.79,491Z" transform="translate(439 -226.8)"/><path class="cls-4" d="M35.69,596.85c246.74,91.74,814.47,34.84,1232.67,23.82s351,77,351,77,71.47-99.19-306.15-119.17-571.8,43.91-929.48,20.19S-439,389.5-439,389.5-96,547.88,35.69,596.85Z" transform="translate(439 -226.8)"/><path class="cls-5" d="M51.43,600.59c208.55,100.15,794.68,64.59,1214.19,69S1583.51,759,1583.51,759s110.28-95.83-256.64-129.57-585,22.51-930.67-14.21-733.74-238-733.74-238S-59.92,547.12,51.43,600.59Z" transform="translate(439 -226.8)"/></g></g></g></svg>