<svg xmlns="http://www.w3.org/2000/svg" viewBox="0 0 121.99 116.3"><defs><style>.cls-1{fill:#fff;}</style></defs><g id="Layer_2" data-name="Layer 2"><g id="Layer_3" data-name="Layer 3"><path class="cls-1" d="M.52,100.42a2,2,0,0,1,.14-2.81L35.8,66.25a2,2,0,0,1,2.84.14l14,15.23a2,2,0,0,1-.14,2.8L17.39,115.79a2,2,0,0,1-2.84-.14Z"/><path class="cls-1" d="M79.51,0A42.91,42.91,0,0,1,93.4,2.31c22.16,7.53,33.91,31.29,26.24,53.07a42.44,42.44,0,0,1-40.13,28.1,43.23,43.23,0,0,1-13.89-2.31c-22.16-7.53-33.91-31.3-26.24-53.08A42.44,42.44,0,0,1,79.51,0m0,11.31A30.94,30.94,0,0,0,50.26,31.79,29.69,29.69,0,0,0,51.67,55,30.52,30.52,0,0,0,69.39,70.48a31.33,31.33,0,0,0,10.12,1.69,31,31,0,0,0,29.26-20.49,29.75,29.75,0,0,0-1.41-23.23A30.62,30.62,0,0,0,89.63,13h0a31.54,31.54,0,0,0-10.12-1.68Z"/></g></g></svg>