<svg xmlns="http://www.w3.org/2000/svg" viewBox="0 0 1007.33 282.33"><defs><style>.cls-1{fill:#f15a24;}.cls-2{fill:#fff;}.cls-3{fill:#ed1c24;}.cls-4{fill:#ff931e;}</style></defs><g id="Layer_2" data-name="Layer 2"><g id="Layer_3" data-name="Layer 3"><path class="cls-1" d="M985,229.52a307.32,307.32,0,0,1-18.41,36.15c-3.29-.54-6.58-1-9.87-1.58-22.11-3.54-44.56-7.08-67.21-10.62-42.4-6.67-85.63-13.29-129.11-20q-41.55-6.44-83.3-13c-9.12-1.42-18.2-2.83-27.27-4.29-45.32-7.21-90.42-14.54-134.69-22.07-3.08-.54-6.21-1-9.29-1.59q-36.36-6.24-71.76-12.66-24.68-4.43-48.77-9-22.43-4.32-44.31-8.67-14.81-2.92-29.32-6l-7.75-1.63c-.62-.12-1.29-.25-1.91-.41s-1.29-.3-2-.42c-24.95-5.29-49.18-10.66-72.42-16.2-1.59-.38-3.17-.75-4.75-1.17-5.29-1.25-10.54-2.54-15.7-3.83l-3.46-.87c-26.4-6.63-51.48-13.42-75-20.45,0,0-.12,0-.16,0-3-.88-6-1.75-9-2.67C92.58,100.2,67.76,91.62,45.48,82.67,31,76.88,17.66,71,5.5,64.89A279.73,279.73,0,0,1,20.16,16q12.56,5.57,25.32,11.08c27.2,11.7,55.06,23.07,83.29,33.82q26.8,10.13,54,19.49,21.93,7.56,44,14.41c17.78,5.5,35.57,10.66,53.35,15.33,3.17.87,6.37,1.7,9.54,2.54q6.24,1.62,12.37,3.12c2.83.71,5.62,1.42,8.41,2.08q38.42,9.56,74.88,17.37,24.74,5.31,48.77,10c25.32,5,50.1,9.37,74.55,13.41,43.61,7.29,86,13.46,128.23,19.2,7.91,1,15.87,2.13,23.78,3.17,5.5.75,11,1.45,16.45,2.16q14.19,1.94,28.45,3.79,27,3.57,54.39,7.21c.17,0,.29,0,.46,0,25,3.37,50.31,6.83,76,10.62l6.87,1c20.62,3,41.49,6.29,62.77,9.79l14.32,2.37q22.13,3.75,44.86,7.87C971.72,227,978.34,228.27,985,229.52Z"/><path class="cls-2" d="M309.9,0V60.06c0,11.41,0,23.11.17,34.73q.12,11.68.37,23.07.18,10.06.5,19.62c.08,2.37.17,4.75.25,7.08,0,1.16.08,2.33.12,3.46.09,2.37.21,4.7.3,6.95,0,.42.08.79.08,1.17,0,.79.08,1.58.12,2.33.5,9.66,1.17,18.41,2,25.82h-1.41c-2.46-7.16-6.17-16.45-10.87-27.28-.38-.92-.75-1.83-1.17-2.75-.08-.21-.17-.37-.25-.58-1-2.38-2.12-4.83-3.25-7.33-.79-1.67-1.54-3.38-2.33-5.12-1.29-2.84-2.58-5.75-4-8.75-3.25-7.12-6.75-14.62-10.37-22.36-4.5-9.63-9.25-19.62-14.08-29.74C253,53.1,239.39,24.82,227.77,0h-99V282.33h75.68V218.94c0-10.45,0-21.11,0-31.69v-2.59c0-1.74,0-3.45,0-5.16,0-2.92,0-5.79,0-8.66-.08-8.79-.16-17.37-.33-25.62,0-1.87,0-3.7-.08-5.53q-.07-3.19-.13-6.25c0-.63,0-1.21,0-1.83-.13-4-.21-7.92-.33-11.62-.13-4-.3-7.92-.46-11.54-.38-7.87-.79-14.78-1.38-20.41h1.13c2.16,6,5.29,13.91,9.2,23.08,1.63,3.91,3.42,8,5.29,12.36,1.83,4.13,3.71,8.42,5.71,12.83,0,0,0,.09,0,.13,1.12,2.54,2.33,5.16,3.5,7.83.58,1.2,1.12,2.45,1.71,3.75,4.33,9.53,8.91,19.53,13.61,29.69,1,2,1.88,4,2.84,6.08s1.83,4,2.74,6a.69.69,0,0,1,.17.33c16,34.36,32.61,69,43.48,92.25h94.33V0Z"/><path class="cls-3" d="M1007.33,136.31a273.68,273.68,0,0,1-5.25,39.23c-21.78.75-43.9,1.59-66.18,2.46-.79,0-1.62,0-2.41.08q-41.75,1.57-84.26,3.29l-6,.25-19.24.75c-21.11.84-42.35,1.71-63.59,2.5h-.46q-27.18,1.06-54.39,2l-28.45,1c-54.6,1.88-108.86,3.46-162,4.42-3.13,0-6.21.12-9.29.16q-36.3.63-71.76.8-24.68.12-48.77,0c-28.44-.16-56.26-.62-83.29-1.37q-28-.81-54.69-2.12c-1.58-.05-3.16-.13-4.7-.21-12.95-.67-25.74-1.42-38.23-2.29-14.71-1-29.12-2.17-43.11-3.46q-16.62-1.56-32.53-3.37c-2.58-.29-5.16-.63-7.7-.92-27-3.29-52.31-7.29-75.59-12.08-15.2-3.08-29.53-6.54-42.9-10.33-1-7.37-1.71-14.78-2.08-22.24C.17,129.73,0,124.57,0,119.4c0-2.66,0-5.33.13-8,15,3.08,30.15,6,45.35,8.91q37.35,7.07,75,13.12c2.79.46,5.53.87,8.28,1.29,3.63.62,7.25,1.17,10.87,1.71,21.54,3.25,43,6.24,64.35,8.78l9.54,1.13c4.87.58,9.7,1.12,14.49,1.67h.13Q248.7,150.26,269,152c10.54.92,21,1.71,31.36,2.29l1.71.13,1.91.12c2.21.17,4.42.29,6.58.42.38,0,.71,0,1.09,0,25.44,1.46,49.93,2.46,73.71,3.08q24.93.69,48.77.92c25.61.21,50.39.08,74.55-.38,44.36-.79,86.67-2.58,128.23-4.79,13.5-.75,26.87-1.5,40.23-2.29,27.66-1.66,55.14-3.41,82.84-5.12a1.79,1.79,0,0,1,.46,0c27.24-1.71,54.72-3.38,82.83-4.83,3.88-.21,7.75-.42,11.67-.59,27.07-1.37,54.72-2.54,83.33-3.37.71,0,1.42,0,2.13,0C962.1,136.89,984.38,136.48,1007.33,136.31Z"/><path class="cls-4" d="M999.16,187.75a281.53,281.53,0,0,1-12.91,38.77c-7-.25-14-.5-21.07-.71l-48.85-1.5-63.43-1.87c-3.21-.08-6.46-.21-9.67-.29q-18.3-.51-36.69-1.09-23.06-.62-46.14-1.33h-.46q-41.41-1.3-82.84-2.62c-9.12-.34-18.2-.63-27.27-1-45.44-1.62-90.55-3.46-134.69-5.62-27.45-1.34-54.52-2.83-81.05-4.5q-24.73-1.5-48.77-3.25c-28.57-2-56.39-4.33-83.29-6.91q-28-2.69-54.52-5.79c-1.62-.17-3.25-.33-4.87-.54q-19.56-2.31-38.23-4.88-23.74-3.3-45.94-6.95c-10.16-1.75-20.08-3.54-29.7-5.37l-7.74-1.5C93.21,165.26,67.88,159,45.48,151.93A382.6,382.6,0,0,1,4,136.44c-1.13-.5-2.29-1-3.5-1.59C.17,129.73,0,124.57,0,119.4c0-2.66,0-5.33.13-8,.24-8.58.87-17.08,2-25.49q21.38,6.81,43.4,13.33c24.45,7.24,49.39,14.2,74.63,20.74,2.88.75,5.75,1.45,8.66,2.2,1.71.42,3.42.88,5.13,1.29,23.15,5.83,46.56,11.25,70,16.21,2.41.54,4.87,1,7.28,1.54,5.09,1,10.17,2,15.25,3,.5.08,1,.2,1.45.29q20.57,4,41.07,7.41c10.87,1.83,21.7,3.54,32.53,5,.16,0,.37,0,.54.08,3.24.5,6.54,1,9.78,1.38l8.46,1.12c7,.88,13.91,1.75,20.74,2.54q22.49,2.69,44.31,4.88,24.81,2.49,48.77,4.41c36,2.92,70.8,5,104.74,6.37,41.53,1.79,81.88,2.63,121.82,3.17,5.5.08,11,.12,16.45.21,26.12.25,52.15.41,78.34.62,1.5,0,3,0,4.5,0h.46c21,.13,42.19.29,63.59.54l19.24.25c1.84,0,3.67,0,5.54.09,27,.46,54.48,1.08,82.59,2l2.79.12Q966,185.94,999.16,187.75Z"/><path class="cls-2" d="M645.2,61.3V0H434.09V282.33h81.05V177.79H636.87V116.2H515.14V61.3Z"/><path class="cls-2" d="M755.44,181.79c-4.91.21-9.83.38-14.74.58l19.24.25v-1C758.44,181.67,756.94,181.75,755.44,181.79Zm0,0c-4.91.21-9.83.38-14.74.58l19.24.25v-1C758.44,181.67,756.94,181.75,755.44,181.79Zm184.88-45.56C939.57,56,887.59,0,798.38,0H677.1V282.33h120c29.9,0,55.47-6.58,76.34-18.24a127.8,127.8,0,0,0,16.08-10.62,124.77,124.77,0,0,0,21.82-22.12c1.12-1.46,2.21-2.91,3.25-4.45.58-.84,1.16-1.71,1.75-2.59,1.41-2.08,2.75-4.2,4-6.37A141.14,141.14,0,0,0,933,188.75c.41-1.29.79-2.54,1.12-3.88q1-3.37,1.75-6.87c.25-1,.5-2,.71-3.08a176.6,176.6,0,0,0,3.75-36.86v-.54C940.36,137.06,940.36,136.65,940.32,136.23ZM759.94,59.93h32.65c45,0,62.22,31.19,62.35,77.63v.5c0,1,0,1.92,0,2.87-.17,14-1.67,26.49-4.71,37.15-.29,1.13-.62,2.21-1,3.29-.16.46-.33.88-.46,1.34-.24.71-.45,1.37-.7,2a61.88,61.88,0,0,1-11.71,20,47.21,47.21,0,0,1-13.66,10.79,55.09,55.09,0,0,1-16.16,5.49,76,76,0,0,1-14.91,1.38H759.94Zm-4.5,121.86c-4.91.21-9.83.38-14.74.58l19.24.25v-1C758.44,181.67,756.94,181.75,755.44,181.79Z"/></g></g></svg>